# xmcd
#
# Track frame offsets: 
#        150
#        17880
#        37132
#        64070
#        78815
#        99512
#        122697
#        141345
#        158512
#        177080
#        201362
#        220882
#
# Disc length: 3267 seconds
#
# Revision: 1
# Processed by: cddbd v1.5.2PL0 Copyright (c) Steve Scherf et al.
# Submitted via: ExactAudioCopy v1.0b3
#
DISCID=a30cc10c
DTITLE=The Latin Brothers - Salsa
DYEAR=1994
DGENRE=Salsa
TTITLE0=Quierela
TTITLE1=Son Del Cañaveral
TTITLE2=Preguntan Por Alli
TTITLE3=Yo Soy La Salsa
TTITLE4=Tu Lo Mataste
TTITLE5=Pan Panadero
TTITLE6=Juntos Para Siempre
TTITLE7=La Fabulosa
TTITLE8=Amame Con Tu Experiencia
TTITLE9=Sobre Las Olas
TTITLE10=El Carretero
TTITLE11=Tu Lo Mataste
EXTD=
EXTT0=
EXTT1=
EXTT2=
EXTT3=
EXTT4=
EXTT5=
EXTT6=
EXTT7=
EXTT8=
EXTT9=
EXTT10=
EXTT11=
PLAYORDER=
